HIERARCHY
ROOT Hips
{
	OFFSET 0.000000 0.000000 0.000000
	CHANNELS 6 Xposition Yposition Zposition Zrotation Yrotation Xrotation 
	JOINT LHipJoint
	{
		OFFSET 0.000000 0.000000 0.000000
		CHANNELS 3 Zrotation Yrotation Xrotation
		JOINT LeftUpLeg
		{
			OFFSET 1.363060 -1.794630 0.839290
			CHANNELS 3 Zrotation Yrotation Xrotation
			JOINT LeftLeg
			{
				OFFSET 2.448110 -6.726130 0.000000
				CHANNELS 3 Zrotation Yrotation Xrotation
				JOINT LeftFoot
				{
					OFFSET 2.562200 -7.039590 0.000000
					CHANNELS 3 Zrotation Yrotation Xrotation
					JOINT LeftToeBase
					{
						OFFSET 0.157640 -0.433110 2.322550
						CHANNELS 3 Zrotation Yrotation Xrotation
						End Site
						{
							OFFSET 0.000000 0.000000 0.000000
						}
					}
				}
			}
		}
	}
	JOINT RHipJoint
	{
		OFFSET 0.000000 0.000000 0.000000
		CHANNELS 3 Zrotation Yrotation Xrotation
		JOINT RightUpLeg
		{
			OFFSET -1.305520 -1.794630 0.839290
			CHANNELS 3 Zrotation Yrotation Xrotation
			JOINT RightLeg
			{
				OFFSET -2.542530 -6.985550 0.000000
				CHANNELS 3 Zrotation Yrotation Xrotation
				JOINT RightFoot
				{
					OFFSET -2.568260 -7.056230 0.000000
					CHANNELS 3 Zrotation Yrotation Xrotation
					JOINT RightToeBase
					{
						OFFSET -0.164730 -0.452590 2.363150
						CHANNELS 3 Zrotation Yrotation Xrotation
						End Site
						{
							OFFSET 0.000000 0.000000 0.000000
						}
					}
				}
			}
		}
	}
	JOINT LowerBack
	{
		OFFSET 0.000000 0.000000 0.000000
		CHANNELS 3 Zrotation Yrotation Xrotation
		JOINT Spine
		{
			OFFSET 0.028270 2.035590 -0.193380
			CHANNELS 3 Zrotation Yrotation Xrotation
			JOINT Spine1
			{
				OFFSET 0.056720 2.048850 -0.042750
				CHANNELS 3 Zrotation Yrotation Xrotation
				JOINT Neck
				{
					OFFSET 0.000000 0.000000 0.000000
					CHANNELS 3 Zrotation Yrotation Xrotation
					JOINT Neck1
					{
						OFFSET -0.054170 1.746240 0.172020
						CHANNELS 3 Zrotation Yrotation Xrotation
						JOINT Head
						{
							OFFSET 0.104070 1.761360 -0.123970
							CHANNELS 3 Zrotation Yrotation Xrotation
							End Site
							{
								OFFSET 0.000000 0.000000 0.000000
							}
						}
					}
				}
				JOINT LeftShoulder
				{
					OFFSET 0.000000 0.000000 0.000000
					CHANNELS 3 Zrotation Yrotation Xrotation
					JOINT LeftArm
					{
						OFFSET 3.362410 1.200890 -0.311210
						CHANNELS 3 Zrotation Yrotation Xrotation
						JOINT LeftForeArm
						{
							OFFSET 4.983000 -0.000000 -0.000000
							CHANNELS 3 Zrotation Yrotation Xrotation
							JOINT LeftHand
							{
								OFFSET 3.483560 -0.000000 -0.000000
								CHANNELS 3 Zrotation Yrotation Xrotation
								JOINT LeftFingerBase
								{
									OFFSET 0.000000 0.000000 0.000000
									CHANNELS 3 Zrotation Yrotation Xrotation
									JOINT LeftHandIndex1
									{
										OFFSET 0.715260 -0.000000 -0.000000
										CHANNELS 3 Zrotation Yrotation Xrotation
										End Site
										{
											OFFSET 0.000000 0.000000 0.000000
										}
									}
								}
								JOINT LThumb
								{
									OFFSET 0.000000 0.000000 0.000000
									CHANNELS 3 Zrotation Yrotation Xrotation
									End Site
									{
										OFFSET 0.000000 0.000000 0.000000
									}
								}
							}
						}
					}
				}
				JOINT RightShoulder
				{
					OFFSET 0.000000 0.000000 0.000000
					CHANNELS 3 Zrotation Yrotation Xrotation
					JOINT RightArm
					{
						OFFSET -3.136600 1.374050 -0.404650
						CHANNELS 3 Zrotation Yrotation Xrotation
						JOINT RightForeArm
						{
							OFFSET -5.241900 -0.000000 -0.000000
							CHANNELS 3 Zrotation Yrotation Xrotation
							JOINT RightHand
							{
								OFFSET -3.444170 -0.000000 -0.000000
								CHANNELS 3 Zrotation Yrotation Xrotation
								JOINT RightFingerBase
								{
									OFFSET 0.000000 0.000000 0.000000
									CHANNELS 3 Zrotation Yrotation Xrotation
									JOINT RightHandIndex1
									{
										OFFSET -0.622530 -0.000000 -0.000000
										CHANNELS 3 Zrotation Yrotation Xrotation
										End Site
										{
											OFFSET 0.000000 0.000000 0.000000
										}
									}
								}
								JOINT RThumb
								{
									OFFSET 0.000000 0.000000 0.000000
									CHANNELS 3 Zrotation Yrotation Xrotation
									End Site
									{
										OFFSET 0.000000 0.000000 0.000000
									}
								}
							}
						}
					}
				}
			}
		}
	}
}
MOTION
Frames: 6
Frame Time: 0.008333
33.219705 17.574287 -3.325796 11.920052 -77.446729 -15.577564 6.021354 0.522289 -0.010569 -31.689313 -10.196915 -2.298309 -0.563308 9.962022 26.556710 -3.091629 14.213857 -12.916196 0.123900 -2.269200 -6.250200 -8.337360 0.141474 -2.383719 25.263243 2.843817 -10.013531 -11.420034 -19.507860 65.554489 3.404479 -16.780816 -7.969164 -2.319700 9.502500 -27.380300 -3.566151 1.445862 9.527152 1.415292 1.987735 2.680903 -7.064726 0.595428 4.359060 3.748604 1.974024 -4.384828 11.047386 0.459036 12.773344 -0.446600 1.200400 4.643000 5.808315 2.396227 -0.262561 -96.324424 -9.106849 24.078491 10.816347 -9.826862 -1.218868 -2.557707 -1.360265 14.362630 16.493005 4.492251 2.174400 -7.125000 0.000000 0.000000 -6.845800 36.720300 1.402200 -10.078483 -3.399859 0.300382 106.115281 -0.064481 36.572408 -14.003251 20.970171 -4.288253 0.619765 2.962727 -18.548639 -16.849784 -0.842388 1.177600 7.125000 0.000000 0.000000 6.708000 -33.653700 1.877300 
32.947395 17.575209 -3.237178 11.807969 -77.223198 -14.590795 6.011778 0.514258 -0.039835 -31.894524 -10.348739 -1.871646 -0.627439 9.843959 26.269763 -3.078553 14.281444 -13.507231 0.178100 -2.718200 -7.495300 -8.435849 0.245146 -2.181368 25.444985 4.856642 -13.193889 -11.310388 -19.838115 65.440179 3.438675 -17.040056 -9.361638 -2.359600 9.578000 -27.620600 -3.941085 1.165080 8.493512 1.445504 1.669109 2.584791 -6.609439 0.359070 4.625768 3.468035 1.925314 -4.507641 10.884620 0.483438 13.279929 -0.415600 1.254800 4.421600 5.929360 2.311580 -0.318780 -96.620174 -9.800803 27.087806 11.185583 -10.462252 -1.444960 -2.457879 -1.449311 12.409998 16.368443 4.043617 2.002500 -7.125000 0.000000 0.000000 -6.936300 36.237500 1.503300 -10.062699 -3.314842 0.310374 105.913041 -0.161426 36.365375 -13.720340 20.564752 -4.097700 0.687403 2.915588 -18.632077 -16.986861 -0.383771 1.014200 7.125000 0.000000 0.000000 6.504500 -33.110400 1.905700 
32.671744 17.555042 -3.145563 11.842562 -77.026017 -14.529941 6.006580 0.584012 -0.042026 -32.352280 -10.241370 -0.407188 -0.726123 9.531044 25.648139 -3.137089 14.589956 -14.131530 0.225600 -3.057200 -8.438200 -8.502095 0.319199 -2.046869 25.562225 6.425474 -15.239792 -10.874262 -19.932574 64.323847 3.306850 -16.674260 -10.499840 -2.109200 9.090000 -26.077300 -4.241108 0.940493 8.234830 1.475249 1.383750 2.587069 -6.195353 0.146658 4.801571 3.062498 1.941197 -4.673189 10.811775 0.571891 13.539400 -0.353500 1.313300 4.572700 6.042773 2.198697 -0.369866 -96.964730 -10.402280 29.467352 11.672265 -11.288253 -1.709701 -2.417801 -1.648024 10.907639 16.522519 4.219250 2.121900 -7.125000 0.000000 0.000000 -6.866200 36.570800 1.431700 -10.047529 -3.222200 0.336175 105.683029 -0.206493 36.201152 -13.434820 20.117604 -3.903006 0.746594 2.860687 -18.995417 -17.041011 0.126069 0.821000 7.125000 0.000000 0.000000 6.365600 -32.495300 1.959600 
32.372929 17.559191 -3.058442 11.236845 -76.728176 -13.996203 5.998337 0.670048 -0.032082 -32.702545 -10.120002 1.349917 -0.823910 9.168069 24.972955 -3.147139 14.752323 -14.792540 0.266200 -3.318800 -9.167700 -8.559231 0.373165 -1.925869 25.863128 7.753441 -17.043753 -10.271748 -19.936935 62.701192 3.503628 -17.697697 -12.521121 -1.965200 8.793100 -25.150300 -4.317802 0.783711 8.213326 1.479295 1.184379 2.572768 -6.028971 0.009547 4.732194 3.171847 1.949100 -4.560268 10.611649 0.609546 13.682379 -0.474700 1.346600 4.623900 6.229129 2.165281 -0.435930 -97.159955 -10.627876 31.715533 12.206379 -12.282492 -2.042892 -2.415228 -1.753927 10.004411 16.926054 4.039212 2.138000 -7.125000 0.000000 0.000000 -6.504200 36.487300 1.368800 -10.035661 -3.209779 0.371250 105.679325 -0.405511 35.530843 -13.186387 19.764001 -3.777456 0.730011 2.778024 -18.316515 -16.426618 0.297024 0.713400 7.125000 0.000000 0.000000 6.897700 -32.235200 2.169000 
32.078839 17.551355 -2.971437 10.730315 -76.427549 -13.398793 5.980393 0.752113 -0.021690 -32.980089 -9.950164 3.001747 -0.959073 8.732638 24.066907 -3.164317 14.904033 -15.287854 0.296100 -3.498900 -9.671000 -8.596387 0.428474 -1.808193 25.977295 9.052623 -18.756913 -9.523678 -19.829165 60.609978 3.597898 -18.311973 -13.979461 -1.932500 8.724100 -24.936000 -4.460482 0.597820 8.004187 1.496541 0.956797 2.544437 -5.757077 -0.155053 4.751321 3.097543 1.934715 -4.545537 10.461775 0.632624 13.881785 -0.528400 1.373900 4.716200 6.410077 2.119480 -0.494646 -97.392510 -10.974876 33.869456 12.728074 -13.227342 -2.385088 -2.413388 -1.871656 9.221922 17.307363 3.985953 2.199700 -7.125000 0.000000 0.000000 -6.180600 36.551700 1.290200 -10.037497 -3.186061 0.398230 105.595838 -0.604847 35.026717 -12.953308 19.427249 -3.647467 0.745961 2.706136 -17.970772 -16.106486 0.604761 0.579500 7.125000 0.000000 0.000000 7.139200 -31.836700 2.314900 
31.777720 17.549280 -2.883394 10.182528 -76.108468 -12.785655 5.957219 0.851385 -0.001821 -33.207933 -9.684499 4.832100 -1.131984 8.177004 22.863433 -3.187374 15.039027 -15.641538 0.309700 -3.577700 -9.891600 -8.608981 0.470109 -1.710253 26.029779 10.159836 -20.185271 -8.587050 -19.546507 57.889110 3.701228 -18.964254 -15.290128 -1.949100 8.759300 -25.045300 -4.556504 0.419989 7.835355 1.516618 0.741040 2.511852 -5.510452 -0.310687 4.734217 3.043265 1.909630 -4.493460 10.311096 0.639168 14.067957 -0.588400 1.391800 4.795100 6.604559 2.087824 -0.552327 -97.629414 -11.267261 35.936518 13.261943 -14.186881 -2.750665 -2.442075 -1.993488 8.706575 17.834985 4.042498 2.329600 -7.125000 0.000000 0.000000 -5.729400 36.762300 1.165600 -10.052414 -3.177160 0.423491 105.510514 -0.850369 34.538766 -12.755149 19.156793 -3.546947 0.752786 2.634628 -17.610712 -15.742745 0.892223 0.456500 7.125000 0.000000 0.000000 7.422800 -31.463000 2.475400 
